# xmcd
#
# Track frame offsets:
#	150
#	14401
#	27812
#	42119
#	56175
#	67152
#	79661
#	92766
#	106219
#	119486
#	132124
#	144309
#	156340
#	169454
#	189744
#	203364
#	216971
#	229221
#	241983
#	254637
#	263169
#	277108
#	290948
#	304462
#	318634
#
# Disc length: 4411
#
# Revision: 2
# Processed by: cddbd v1.5.1PL0 Copyright (c) Steve Scherf et al.
# Submitted via: EasyCDDAExtractor 7.0.5.4
# Normalized: r1:DSETVAR1
#
DISCID=87113919
DTITLE=Various Artist - COWBOY SONGS and HILLBILLY BALLADS VOLUME 2
DYEAR=2002
DGENRE=COWBOY
TTITLE0=DeFORD BAILEY - MUSCLE SHOALS
TTITLE1=BEVERLY HILL BILLIES - MY LITTLE OLD COW PONY AND I
TTITLE2=W. LEE O'DANIEL and HIS LIGHT CRUST DOUGHBOYS - MY MARY
TTITLE3=BEVERLY HILLBILLIES - MY PRETTY QUADROON
TTITLE4=GOPHER HOLE DIGGERS - MY SWEETHEARTS THE MAN IN THE MOON
TTITLE5=JACK GUTHRIE - OKLAHOMA HILLS
TTITLE6=SAM and KIRK McGEE - OLD MASTER'S GONE AWAY
TTITLE7=UNCLE DAVE MACON - DOWN THE ROAD I GO
TTITLE8=DeFORD BAILEY - PAN AMERICAN BLUES
TTITLE9=AL DEXTER - PISTOL PACKING MAMA
TTITLE10=STUART HAMBLEN - POOR UNLUCKY COWBOY
TTITLE11=ARTHUR COLLINS - PREACHER AND THE BEAR
TTITLE12=RILEY PUCKETT - RAGGED BUT RIGHT
TTITLE13=LULU BELLE and SCOTTY - REMEMBER ME
TTITLE14=BEVERLY HILL BILLIES - REMEMBERING
TTITLE15=BEVERLY HILL BILLIES - ROSALIE
TTITLE16=FARR BROTHERS - SOUTH IN MY SOUL
TTITLE17=STUART HAMBLEN - TEXAS PLAINS
TTITLE18=GENE AUTRY and JIMMY LONG - THAT SILVER HAIRED DADDY OF MINE
TTITLE19=GENE AUTRY - COWBOY AND THE LADY
TTITLE20=BRADLEY KINCAID - THE FATAL WEDDING
TTITLE21=REX GRIFFIN - THE LAST LETTER
TTITLE22=AL CLAUSSER and HIS OUTLAWS - LITTLE BLACK BRONC
TTITLE23=KEN MAYNARD - LONE STAR TRAIL
TTITLE24=J.E. MAINER'S MOUNTAINEERS - THE MAPLE ON THE HILL
EXTD=
EXTT0=
EXTT1=
EXTT2=
EXTT3=
EXTT4=
EXTT5=
EXTT6=
EXTT7=
EXTT8=
EXTT9=
EXTT10=
EXTT11=
EXTT12=
EXTT13=
EXTT14=
EXTT15=
EXTT16=
EXTT17=
EXTT18=
EXTT19=
EXTT20=
EXTT21=
EXTT22=
EXTT23=
EXTT24=
PLAYORDER=
